<svg xmlns="http://www.w3.org/2000/svg" viewBox="0 0 512 512">
  <defs><linearGradient id="sky" x1="0" y1="0" x2="0" y2="1"><stop offset="0" stop-color="#a9e1f3"/><stop offset=".7" stop-color="#e9f8ee"/></linearGradient></defs>
  <rect width="512" height="512" rx="112" fill="url(#sky)"/>
  <path d="M0 400C110 350 200 372 300 396s160 10 212-24V512H0z" fill="#a9dc94"/>
  <path d="M0 450C140 420 300 440 512 428V512H0z" fill="#93d087"/>
  <g transform="translate(256 230)">
    <g fill="#ffd54a">
      <ellipse cx="0" cy="-118" rx="34" ry="62"/><ellipse cx="0" cy="-118" rx="34" ry="62" transform="rotate(30)"/><ellipse cx="0" cy="-118" rx="34" ry="62" transform="rotate(60)"/><ellipse cx="0" cy="-118" rx="34" ry="62" transform="rotate(90)"/><ellipse cx="0" cy="-118" rx="34" ry="62" transform="rotate(120)"/><ellipse cx="0" cy="-118" rx="34" ry="62" transform="rotate(150)"/><ellipse cx="0" cy="-118" rx="34" ry="62" transform="rotate(180)"/><ellipse cx="0" cy="-118" rx="34" ry="62" transform="rotate(210)"/><ellipse cx="0" cy="-118" rx="34" ry="62" transform="rotate(240)"/><ellipse cx="0" cy="-118" rx="34" ry="62" transform="rotate(270)"/><ellipse cx="0" cy="-118" rx="34" ry="62" transform="rotate(300)"/><ellipse cx="0" cy="-118" rx="34" ry="62" transform="rotate(330)"/>
    </g>
    <circle r="92" fill="#8a5a3a"/><circle cx="-10" cy="-10" r="76" fill="#a06f48"/>
    <g fill="#5a3f5e"><ellipse cx="-30" cy="-8" rx="10" ry="14"/><ellipse cx="30" cy="-8" rx="10" ry="14"/></g>
    <g fill="#fff"><circle cx="-33" cy="-14" r="4"/><circle cx="27" cy="-14" r="4"/></g>
    <path d="M-22 22q22 22 44 0" fill="none" stroke="#5a3f5e" stroke-width="7" stroke-linecap="round"/>
    <g fill="#ff8aa3" opacity=".55"><ellipse cx="-52" cy="20" rx="13" ry="8"/><ellipse cx="52" cy="20" rx="13" ry="8"/></g>
  </g>
  <path d="M256 322V430" stroke="#59b96e" stroke-width="16" stroke-linecap="round"/>
  <ellipse cx="216" cy="392" rx="34" ry="14" fill="#59b96e" transform="rotate(-25 216 392)"/>
  <ellipse cx="298" cy="376" rx="34" ry="14" fill="#3f9a5a" transform="rotate(25 298 376)"/>
</svg>
